<svg xmlns="http://www.w3.org/2000/svg" width="87.216" height="83.089" viewBox="0 0 87.216 83.089">
  <g id="illustration" transform="translate(-33.824 -53.981)">
    <g id="Group_6737" data-name="Group 6737" transform="translate(101.469 71.133)">
      <path id="Path_25054" data-name="Path 25054" d="M358.867,145.381l2.65-8.559a1.477,1.477,0,0,0-.974-1.847h0a1.476,1.476,0,0,0-1.847.974l-2.65,8.559a3.517,3.517,0,1,0,2.821.874Z" transform="translate(-352.994 -134.909)" fill="#fff"/>
      <path id="Path_25055" data-name="Path 25055" d="M362.3,149.656l2.9-9.366a.643.643,0,0,0-.424-.8h0a.644.644,0,0,0-.8.424l-2.9,9.366a2.3,2.3,0,1,0,1.229.38Z" transform="translate(-357.511 -138.493)" fill="#f4516d"/>
    </g>
    <g id="Group_6738" data-name="Group 6738" transform="translate(33.824 58.461)" opacity="0.55" style="mix-blend-mode: multiply;isolation: isolate">
      <path id="Path_25056" data-name="Path 25056" d="M98.056,127.333c-.065,0-.13,0-.193.01l-.34-1.181a.424.424,0,0,0-.815.235l.343,1.192a2.127,2.127,0,0,0-.239.155L95.9,127a.424.424,0,0,0-.534.658l.874.71a2.106,2.106,0,1,0,1.814-1.039Z" transform="translate(-82.201 -115.102)" fill="#e3f3dd"/>
      <path id="Path_25057" data-name="Path 25057" d="M76.256,220.338l.371-1.282a.424.424,0,0,0-.814-.236l-.386,1.334c-.068,0-.135-.01-.2-.01-.039,0-.076,0-.114.006l-.2-1.277a.424.424,0,1,0-.837.132l.206,1.3a2.878,2.878,0,0,0-1.365,1.009l-.993-.465a.424.424,0,1,0-.36.768l.955.447a2.874,2.874,0,1,0,3.744-1.727Z" transform="translate(-63.368 -188.122)" fill="#e3f3dd"/>
      <path id="Path_25058" data-name="Path 25058" d="M40.242,324.572a.267.267,0,0,0-.364-.105l-.519.286a2.783,2.783,0,0,0-.359-.306l.323-.643a.268.268,0,0,0-.479-.24l-.308.614a2.741,2.741,0,0,0-3.879,2.5,2.762,2.762,0,0,0,.02.318l-.646.152a.268.268,0,0,0,.122.521l.636-.149a2.744,2.744,0,0,0,.772,1.191l-.486.642a.268.268,0,1,0,.427.323l.489-.645a2.742,2.742,0,0,0,3.709-3.851l.437-.241A.267.267,0,0,0,40.242,324.572Z" transform="translate(-33.824 -270.792)" fill="#e3f3dd"/>
      <path id="Path_25059" data-name="Path 25059" d="M347.208,76.127a.233.233,0,0,0-.317-.092l-.453.25a2.4,2.4,0,0,0-.313-.267l.281-.561a.234.234,0,0,0-.417-.21l-.269.536a2.387,2.387,0,0,0-3.366,2.456l-.564.132a.233.233,0,0,0,.107.455l.555-.13a2.392,2.392,0,0,0,.673,1.039l-.423.56a.233.233,0,0,0,.372.282l.426-.563a2.392,2.392,0,0,0,3.235-3.359l.381-.21A.234.234,0,0,0,347.208,76.127Z" transform="translate(-276.377 -75.119)" fill="#e3f3dd"/>
      <path id="Path_25060" data-name="Path 25060" d="M420.974,295.205a2.869,2.869,0,0,0-.32-4.012l.689-1.008a.424.424,0,1,0-.7-.478l-.7,1.029a2.85,2.85,0,0,0-.511-.172l.093-1.117a.424.424,0,0,0-.845-.07l-.093,1.118a2.874,2.874,0,1,0,1.756,5.274l.432.534a.424.424,0,1,0,.659-.533Z" transform="translate(-334.918 -243.66)" fill="#e3f3dd"/>
      <path id="Path_25061" data-name="Path 25061" d="M425.208,224.961l.459-.8a.424.424,0,0,0-.736-.42l-.427.747a2.078,2.078,0,0,0-.293-.095v-.852a.424.424,0,1,0-.848,0v.817a2.092,2.092,0,0,0-1.753,2.33l-.739.2a.424.424,0,1,0,.218.819l.791-.21a2.106,2.106,0,1,0,3.328-2.529Z" transform="translate(-338.592 -191.748)" fill="#e3f3dd"/>
    </g>
    <g id="Group_6745" data-name="Group 6745" transform="translate(46.603 53.981)">
      <path id="Path_25062" data-name="Path 25062" d="M155.939,94.428a6.8,6.8,0,0,1,1.548-4.57,6.964,6.964,0,0,1,5.234-2.359,4.716,4.716,0,0,1,4.054-2.654c1.418-.046,2.825,1.1,3.907,1.917.161.121.364.516.811.663a2.175,2.175,0,0,0,1.7-.369c1.694-.984,4.95-.643,6.339-.147,3.369,1.2,4.253,6.33,4.349,6.929a9.223,9.223,0,0,1,4.5,4.865,9.128,9.128,0,0,1,.221,5.823,7.426,7.426,0,0,1,2.58,4.644,7.862,7.862,0,0,1-2.654,6.561H153.575a4.067,4.067,0,0,1-2.944-1.179c-1.317-1.514-1.086-4.492,1.106-6.782a13.27,13.27,0,0,1-.074-6.34A13.46,13.46,0,0,1,155.939,94.428Z" transform="translate(-138.015 -78.303)" fill="#8a3579"/>
      <path id="Path_25063" data-name="Path 25063" d="M153.159,213.271c-3.695-6.536-12.657-7.325-12.657-7.325l-12.818-.6V205.3l-.528.025-.528-.025v.049l-12.818.6s-8.963.789-12.657,7.325-8.3,21.469-6.711,29.589,11.2,16.2,20.7,12.562c6.374-2.44,5.593-5.718,4.389-7.611h15.253c-1.2,1.893-1.985,5.171,4.389,7.611,9.5,3.637,19.106-4.441,20.7-12.562S156.853,219.808,153.159,213.271Z" transform="translate(-94.118 -173.23)" fill="#f4c169"/>
      <path id="Path_25064" data-name="Path 25064" d="M196.842,196.934c-.25,4.614-3.756,7.5-5.871,9.239-4.887,4.023-13.149,6.947-19.607,3.849l-.013-.006c-.271-.129-.538-.271-.8-.422-.053-.03-.1-.059-.155-.091l-.051-.032c-.072-.042-.142-.085-.212-.129-.093-.057-.187-.117-.276-.178q-.451-.3-.848-.617c-.091-.072-.182-.146-.269-.218-.07-.059-.142-.121-.21-.18-.227-.2-.437-.4-.634-.593-.076-.076-.148-.15-.22-.225s-.14-.148-.206-.22-.131-.146-.193-.216-.123-.142-.182-.212c-.034-.04-.068-.078-.1-.119-.1-.117-.189-.229-.273-.337l-.038,0-.042-.006-.034-.006-.078-.013-.125-.021-.07-.013-.078-.017c-.087-.017-.184-.038-.29-.064l-.153-.036c-.034-.008-.068-.017-.1-.028-.089-.023-.182-.049-.278-.076l-.1-.03c-.068-.019-.136-.04-.208-.064-.04-.013-.083-.028-.127-.04-.064-.023-.129-.045-.2-.068-.04-.015-.085-.03-.127-.047-.112-.04-.227-.085-.343-.131l-.017-.006c-.074-.03-.15-.061-.227-.1-.167-.072-.341-.15-.517-.235l-.246-.125-.218-.117c-.017-.011-.034-.019-.051-.028-.076-.044-.153-.087-.231-.133a.336.336,0,0,1-.051-.032c-.078-.045-.159-.1-.239-.146s-.176-.114-.265-.174-.178-.123-.267-.186h0c-.176-.129-.35-.265-.523-.409a9.248,9.248,0,0,1-.765-.716c-.078-.083-.157-.165-.235-.252a.057.057,0,0,0-.011-.013c-.081-.091-.159-.187-.237-.282-.057-.072-.117-.144-.174-.218,0,0,0,0,0-.006-.057-.076-.114-.153-.172-.233s-.112-.159-.167-.242c-.04-.057-.078-.117-.117-.178-.134-.21-.261-.432-.381-.663-.028-.051-.053-.1-.078-.155-.059-.117-.114-.235-.17-.358-.061-.14-.121-.28-.176-.42-.025-.066-.051-.131-.074-.2s-.049-.136-.072-.206c-.047-.138-.091-.276-.131-.413s-.076-.276-.108-.413v0a9.831,9.831,0,0,1,1.378-7.691c.638-.945,1.931-2.463,7.045-4.341,4.112-1.507,13.147-4.822,21.953-1.378a12.593,12.593,0,0,1,4.44,2.706C193.608,188.584,197.107,192.087,196.842,196.934Z" transform="translate(-144.569 -156.434)" fill="#f4516d"/>
      <path id="Path_25065" data-name="Path 25065" d="M170.277,274.445a9.253,9.253,0,0,0,.765.716A8.927,8.927,0,0,1,170.277,274.445Z" transform="translate(-154.136 -227.72)" fill="#f4516d"/>
      <path id="Path_25066" data-name="Path 25066" d="M173.887,277.825c.174.144.348.28.523.409C174.235,278.107,174.061,277.971,173.887,277.825Z" transform="translate(-156.981 -230.383)" fill="#f4516d"/>
      <path id="Path_25067" data-name="Path 25067" d="M184.929,215.965a13.034,13.034,0,0,0-4.109-.842,6.048,6.048,0,0,1,4.875-1.5Z" transform="translate(-162.444 -179.764)" fill="#c42c54"/>
      <path id="Path_25068" data-name="Path 25068" d="M282.527,217.311a17.46,17.46,0,0,1,5.607-.33,8.1,8.1,0,0,0-6.175-2.914Z" transform="translate(-242.147 -180.138)" fill="#c42c54"/>
      <path id="Path_25069" data-name="Path 25069" d="M211.655,145.461c0,1.973-1.1,3.571-2.461,3.571a1.528,1.528,0,0,1-.223-.017v1.259a9.068,9.068,0,0,1-1.1,4.345,28.594,28.594,0,0,0-11.1,4.773h-.174a20.139,20.139,0,0,0-8.4-5.453,9.069,9.069,0,0,1-.767-3.664v-1.242c-1.356,0-2.456-1.59-2.463-3.556,5.744-3.4,3.425-9.448,3.425-9.448.029-.057.093-.015.127-.07a13.446,13.446,0,0,1,2.685-1.072,6.581,6.581,0,0,1,.394,1.982c.189,2.588,4.6,1.768,4.792,0,0,0,1.325,7,7.5,4.921,0,0,1.592,3.756,6.861.913A4.34,4.34,0,0,1,211.655,145.461Z" transform="translate(-165.712 -117.738)" fill="#ffabb2"/>
      <path id="Path_25070" data-name="Path 25070" d="M203.408,130.818a13.444,13.444,0,0,0-2.685,1.072q-.067.035-.127.07c-.125-.379-.473-1.746.746-2.124a1.883,1.883,0,0,1,1.011-.072A1.576,1.576,0,0,1,203.408,130.818Z" transform="translate(-177.916 -113.671)" fill="#6d1b5e"/>
      <path id="Path_25071" data-name="Path 25071" d="M188.092,54.022a3.784,3.784,0,0,0-1.106.532,3.045,3.045,0,0,0-.828.863,4.1,4.1,0,0,0-.493,1.091,4.938,4.938,0,0,0-.195,1.179l-.013.293-.265-.125a2.039,2.039,0,0,0-.5-.148,2.7,2.7,0,0,0-.544-.036,2.993,2.993,0,0,0-1.082.247,3.835,3.835,0,0,0-.973.595,2.784,2.784,0,0,0-.751.856,3.509,3.509,0,0,0-.323,2.224,7.7,7.7,0,0,0,.675,2.171l.356.741L181.4,64a7.445,7.445,0,0,0-1.327-.817,4.692,4.692,0,0,0-1.456-.453,2.469,2.469,0,0,0-.734.011,2,2,0,0,0-.672.259,2.059,2.059,0,0,0-.549.489,3.475,3.475,0,0,0-.415.64l-.053.1-.094,0-1.4-.058c-.233-.008-.465-.025-.7-.038s-.465-.027-.7-.045V64.04c.233-.018.465-.032.7-.045s.465-.03.7-.038l1.4-.058-.147.094a2.982,2.982,0,0,1,1.036-1.338,2.263,2.263,0,0,1,.81-.342,2.878,2.878,0,0,1,.868-.035,4.662,4.662,0,0,1,1.6.514,7.84,7.84,0,0,1,1.383.909l-.3.234a6.95,6.95,0,0,1-.576-2.317,4.114,4.114,0,0,1,.458-2.313,3.416,3.416,0,0,1,.343-.489c.132-.151.279-.282.423-.418a2.313,2.313,0,0,1,.226-.192c.079-.06.152-.128.234-.185a4.365,4.365,0,0,1,.51-.317,2.77,2.77,0,0,1,2.4-.184l-.278.168a4.663,4.663,0,0,1,.228-1.286,4.076,4.076,0,0,1,.589-1.16c.069-.085.131-.175.206-.254l.231-.232c.08-.074.172-.134.257-.2.044-.032.086-.067.131-.1l.142-.079a3.407,3.407,0,0,1,1.208-.4Z" transform="translate(-156.522 -53.981)" fill="#8a3579"/>
      <path id="Path_25072" data-name="Path 25072" d="M227.826,77.778a5.279,5.279,0,0,1,3.764.446l.216.114c.07.042.137.088.2.133a3.109,3.109,0,0,1,.393.287,3.718,3.718,0,0,0,.735.542,1.5,1.5,0,0,0,.872.136,2.4,2.4,0,0,0,.86-.32,7.565,7.565,0,0,0,1.438-1.2c.222-.223.447-.444.679-.662a7.073,7.073,0,0,1,.74-.624,3.128,3.128,0,0,1,.429-.265,1.605,1.605,0,0,1,.511-.172,1.325,1.325,0,0,1,.27-.013,1.356,1.356,0,0,1,.26.018,2.1,2.1,0,0,1,.512.133,1.945,1.945,0,0,1,.822.654,2.123,2.123,0,0,1,.258.447,2.39,2.39,0,0,1,.159.5l-.361-.045a5.1,5.1,0,0,1,.408-.636,5.333,5.333,0,0,1,.489-.563,3.619,3.619,0,0,1,1.216-.831l.019.038a4.069,4.069,0,0,0-.566.439,5.086,5.086,0,0,0-.482.521,6.17,6.17,0,0,0-.405.58,5.444,5.444,0,0,0-.331.614l-.218.476-.144-.521a2.18,2.18,0,0,0-.385-.755,1.626,1.626,0,0,0-.651-.5,1.93,1.93,0,0,0-.813-.123,1.854,1.854,0,0,0-.768.333c-.5.338-.97.766-1.463,1.162a11.194,11.194,0,0,1-1.558,1.105,3.109,3.109,0,0,1-.9.347,1.874,1.874,0,0,1-.983-.064,3.9,3.9,0,0,1-.844-.488c-.126-.088-.256-.168-.39-.244l-.2-.117-.2-.1a6.86,6.86,0,0,0-3.581-.742Z" transform="translate(-199.488 -71.221)" fill="#8a3579"/>
      <path id="Path_25073" data-name="Path 25073" d="M284.085,96.04a4.4,4.4,0,0,1,2.307.37,3.412,3.412,0,0,1,.53.269,3.105,3.105,0,0,1,.489.337,6.707,6.707,0,0,1,.834.833c.231.316.492.6.7.935l.168.238.085.119.073.126.3.505a3.825,3.825,0,0,1,.259.526c.08.179.154.36.23.542.116.373.22.75.331,1.126l-.2-.173a2.763,2.763,0,0,1,.571.1,3.248,3.248,0,0,1,.531.192,3.383,3.383,0,0,1,1.6,1.511,3.384,3.384,0,0,1,.218.5c.058.172.1.349.14.523l-.04.013c-.088-.157-.155-.319-.245-.47a4.643,4.643,0,0,0-.288-.434,3.591,3.591,0,0,0-.7-.732,3.549,3.549,0,0,0-.863-.506,4.929,4.929,0,0,0-.472-.163,3.681,3.681,0,0,0-.475-.1l-.167-.022-.037-.152c-.088-.366-.17-.735-.263-1.1-.06-.178-.12-.357-.176-.538a4.508,4.508,0,0,0-.183-.538,5.187,5.187,0,0,0-1.215-1.91l-.44-.359a1.567,1.567,0,0,0-.23-.163l-.235-.154c-.15-.112-.319-.192-.478-.289a5.166,5.166,0,0,0-.492-.262,7.358,7.358,0,0,0-2.153-.661Z" transform="translate(-243.823 -87.101)" fill="#8a3579"/>
      <path id="Path_25074" data-name="Path 25074" d="M324.807,139.118a3.915,3.915,0,0,1,1.591,1.312,3.391,3.391,0,0,1,.287.439c.044.076.092.149.132.227l.106.24a2.842,2.842,0,0,1,.178.492,5.058,5.058,0,0,1,.122.507l.077.513c.024.17.027.343.043.513.049.34.033.681.058,1.023s-.01.683-.008,1.029c-.03.341-.069.684-.116,1.025l-.08-.2a4.83,4.83,0,0,1,1.051,1.011,5.4,5.4,0,0,1,.718,1.249,6.022,6.022,0,0,1,.37,1.382,6.338,6.338,0,0,1,.064.707c0,.236-.008.472-.021.705h-.042c-.05-.23-.075-.459-.126-.685l-.078-.336-.037-.167-.049-.164-.1-.328c-.036-.107-.078-.213-.116-.32-.068-.216-.172-.418-.26-.624a6.653,6.653,0,0,0-.319-.592c-.052-.1-.116-.191-.176-.285s-.126-.184-.191-.275a4.6,4.6,0,0,0-.9-.966l-.1-.08.022-.115c.064-.327.142-.652.217-.98l.07-.5.034-.25.017-.125,0-.126a5.109,5.109,0,0,0-.287-1.977c-.049-.159-.125-.308-.183-.462-.034-.075-.055-.155-.094-.228s-.075-.146-.108-.221l-.1-.223-.118-.215-.118-.216c-.041-.071-.091-.136-.134-.206a6.125,6.125,0,0,0-1.321-1.476Z" transform="translate(-275.899 -121.074)" fill="#8a3579"/>
      <path id="Path_25075" data-name="Path 25075" d="M163.138,104.658a23.824,23.824,0,0,0-1.951,1.774,7.543,7.543,0,0,0-.9.966,5.886,5.886,0,0,0-.342.568c-.048.1-.094.2-.137.3a2.782,2.782,0,0,0-.121.308c-.067.211-.147.415-.2.629s-.11.405-.2.652a1.882,1.882,0,0,1-1.01,1.059c-.122.049-.229.079-.334.112s-.213.067-.32.1c-.214.063-.429.124-.645.18-.432.114-.868.216-1.312.295l-.014-.04c.4-.209.806-.4,1.218-.571.205-.088.412-.171.62-.253.1-.042.208-.081.312-.119s.212-.076.294-.116a1.655,1.655,0,0,0,.823-.8l.243-.611a5.707,5.707,0,0,1,.306-.61c.219-.4.467-.771.7-1.158a11.7,11.7,0,0,1,.756-1.129,5.236,5.236,0,0,1,1-.925,4.587,4.587,0,0,1,1.194-.648Z" transform="translate(-142.614 -93.888)" fill="#8a3579"/>
      <path id="Path_25076" data-name="Path 25076" d="M152.511,137.587a8.848,8.848,0,0,0-2.04,1.491,11.537,11.537,0,0,0-.844.93,4.678,4.678,0,0,0-.668,1.079,4.736,4.736,0,0,0-.335,1.229,8.254,8.254,0,0,0-.06,1.268,12.952,12.952,0,0,0,.289,2.511l.03.153-.131.082a3.989,3.989,0,0,0-.575.457,4.37,4.37,0,0,0-.5.564,4.246,4.246,0,0,0-.408.645,5.079,5.079,0,0,0-.307.717l-.042-.008a3.62,3.62,0,0,1,.489-1.532,3.862,3.862,0,0,1,.485-.663,3.414,3.414,0,0,1,.629-.557l-.1.235a8.994,8.994,0,0,1-.212-2.616,7.5,7.5,0,0,1,.222-1.3c.117-.422.251-.834.406-1.241a8.668,8.668,0,0,1,.554-1.19,4.423,4.423,0,0,1,.82-1.04,5.418,5.418,0,0,1,1.065-.784,4.263,4.263,0,0,1,1.223-.476Z" transform="translate(-135.728 -119.836)" fill="#8a3579"/>
      <path id="Path_25077" data-name="Path 25077" d="M223.537,402.766c-.3-.166-.583-.345-.869-.526s-.565-.373-.847-.559-.556-.386-.828-.586-.544-.4-.806-.619c.3.166.583.345.869.526s.565.373.847.559.556.386.828.587S223.275,402.551,223.537,402.766Z" transform="translate(-193.468 -327.04)" fill="#d83950"/>
      <path id="Path_25078" data-name="Path 25078" d="M222.055,411.383a7.535,7.535,0,0,1-.974-.545,7.45,7.45,0,0,1-.894-.668,7.446,7.446,0,0,1,.974.545A7.553,7.553,0,0,1,222.055,411.383Z" transform="translate(-193.468 -334.68)" fill="#d83950"/>
      <g id="Group_6739" data-name="Group 6739" transform="translate(4.937 52.39)">
        <path id="Path_25079" data-name="Path 25079" d="M299.212,312.737a11.322,11.322,0,0,0-3.023-2.123,4.01,4.01,0,0,0-.428-.188c-.145-.057-.289-.119-.436-.171a8.67,8.67,0,0,0-.9-.262,9.185,9.185,0,0,0-.924-.173l-.051,0c.142-.081.284-.162.427-.238.336-.188.683-.355,1.033-.515s.711-.292,1.078-.415a8.4,8.4,0,0,1,1.135-.262.022.022,0,0,0,.019-.019.021.021,0,0,0-.019-.023,4.809,4.809,0,0,0-1.195.052,6.865,6.865,0,0,0-1.163.3,9.318,9.318,0,0,0-1.1.479c-.112.06-.223.122-.332.185q.073-.152.142-.306c.153-.356.284-.721.4-1.088l.681-2.2c.064-.182.113-.369.164-.555s.112-.372.144-.562a7.94,7.94,0,0,0,.155-1.149,9.447,9.447,0,0,0-.095-2.31.022.022,0,0,0-.02-.018.021.021,0,0,0-.023.02c-.085.767-.123,1.522-.225,2.273-.036.377-.1.748-.142,1.125-.016.189-.047.376-.07.565s-.046.378-.083.565a7.873,7.873,0,0,1-.7,2.168c-.159.345-.341.679-.515,1.014-.16.294-.324.592-.5.867-.029,0-.059,0-.088,0a9.155,9.155,0,0,0-3.648.753,11.57,11.57,0,0,0-3.066,1.994c-.178-.057-.355-.119-.534-.172l-.3-.063a1.815,1.815,0,0,0-.3-.049l-.3-.031c-.1,0-.2,0-.3,0-.051,0-.1,0-.153,0l-.152.022a2.189,2.189,0,0,0-.3.054,2.982,2.982,0,0,0-1.116.529,3.081,3.081,0,0,0-.761.821c-.2-.025-.393-.056-.592-.062a5.3,5.3,0,0,0-.722.021,4.525,4.525,0,0,0-1.4.349,4.449,4.449,0,0,0-1.212.762,4.214,4.214,0,0,0-.9,1.091.021.021,0,0,0,.005.027.021.021,0,0,0,.03,0h0a4.826,4.826,0,0,1,1-.947,4.671,4.671,0,0,1,1.2-.635,4.62,4.62,0,0,1,1.313-.277,4.945,4.945,0,0,1,.673-.006c.224.012.448.048.673.069h.007a.2.2,0,0,0,.187-.094c.521.229,1.026.442,1.542.643.143.053.29.1.438.151a3.6,3.6,0,0,1,.425.189,2.578,2.578,0,0,1,.385.258,2.337,2.337,0,0,1,.342.313c.22.217.408.46.619.677l.278.358c.044.061.1.115.14.178l.128.186c.378.475.66,1.006,1.013,1.54h0a.021.021,0,0,0,.039-.015,4.228,4.228,0,0,0-.683-1.786,4.476,4.476,0,0,0-1.389-1.321l-.2-.129-.2-.121c-.137-.079-.26-.177-.4-.258s-.258-.184-.387-.278-.262-.184-.4-.265a3.727,3.727,0,0,0-.894-.337,3.4,3.4,0,0,0-.721-.1,3.333,3.333,0,0,1,.631-.75,2.736,2.736,0,0,1,.979-.559,2.842,2.842,0,0,1,1.139-.124c.048,0,.1,0,.145.01l.143.028.287.056c.188.05.373.119.558.18h0a.069.069,0,0,0,.068-.015,8.152,8.152,0,0,1,1.483-1.047,11.3,11.3,0,0,1,1.645-.759,9.461,9.461,0,0,1,3.519-.612,8.936,8.936,0,0,1,1.775.2c.294.055.579.146.869.223.143.044.283.1.425.146s.283.1.421.161a14.39,14.39,0,0,1,3.142,1.82.021.021,0,0,0,.028-.032Z" transform="translate(-243.017 -301.171)" fill="#a86e1a"/>
        <path id="Path_25080" data-name="Path 25080" d="M138.93,314.7a4.451,4.451,0,0,0-1.212-.762,4.525,4.525,0,0,0-1.4-.349,5.307,5.307,0,0,0-.723-.021c-.2.007-.4.038-.592.062a3.076,3.076,0,0,0-.761-.821,2.982,2.982,0,0,0-1.116-.529,2.2,2.2,0,0,0-.3-.054l-.152-.022c-.051,0-.1,0-.153,0-.1,0-.2-.008-.3,0l-.3.031a1.814,1.814,0,0,0-.3.049l-.3.063c-.18.053-.356.116-.534.172a11.576,11.576,0,0,0-3.066-1.994,9.156,9.156,0,0,0-3.648-.753c-.029,0-.059,0-.088,0-.176-.275-.34-.573-.5-.867-.175-.335-.356-.669-.515-1.014a7.881,7.881,0,0,1-.7-2.168c-.037-.187-.058-.376-.083-.565s-.053-.376-.07-.565c-.038-.377-.106-.748-.142-1.125-.1-.751-.141-1.505-.225-2.273a.022.022,0,0,0-.018-.02.021.021,0,0,0-.025.018,9.435,9.435,0,0,0-.095,2.31,7.885,7.885,0,0,0,.155,1.149c.033.191.1.375.144.562s.1.373.164.555l.681,2.2c.117.368.248.732.4,1.088q.069.154.142.306c-.109-.063-.22-.125-.332-.185a9.321,9.321,0,0,0-1.1-.479,6.86,6.86,0,0,0-1.163-.3,4.8,4.8,0,0,0-1.194-.052.022.022,0,0,0-.019.019.021.021,0,0,0,.018.023,8.389,8.389,0,0,1,1.135.262c.366.123.726.259,1.078.415s.7.328,1.033.515c.143.076.285.157.427.238l-.051,0a9.216,9.216,0,0,0-.924.173,8.68,8.68,0,0,0-.9.262c-.147.052-.291.114-.436.171a4.018,4.018,0,0,0-.428.188,11.323,11.323,0,0,0-3.023,2.123.021.021,0,0,0,.028.032,14.391,14.391,0,0,1,3.142-1.82c.137-.061.278-.113.421-.161s.282-.1.425-.146c.29-.077.575-.169.869-.223a8.934,8.934,0,0,1,1.775-.2,9.459,9.459,0,0,1,3.519.612,11.3,11.3,0,0,1,1.646.759,8.153,8.153,0,0,1,1.483,1.047.069.069,0,0,0,.068.014h0c.186-.061.37-.129.558-.18l.287-.056.143-.028c.048-.007.1-.006.145-.01a2.843,2.843,0,0,1,1.139.124,2.738,2.738,0,0,1,.979.559,3.332,3.332,0,0,1,.631.75,3.4,3.4,0,0,0-.721.1,3.724,3.724,0,0,0-.894.337c-.138.081-.269.175-.4.265s-.255.193-.387.278-.259.179-.4.258l-.2.121-.2.129a4.475,4.475,0,0,0-1.389,1.321,4.232,4.232,0,0,0-.683,1.786.022.022,0,0,0,.039.015h0c.353-.535.635-1.066,1.013-1.54l.128-.186c.042-.063.1-.116.14-.178l.278-.358c.21-.217.4-.46.619-.677a2.333,2.333,0,0,1,.342-.313,2.572,2.572,0,0,1,.385-.258,3.6,3.6,0,0,1,.425-.189c.148-.049.295-.1.438-.151.516-.2,1.021-.415,1.542-.643a.2.2,0,0,0,.187.094h.007c.224-.022.448-.058.672-.07a4.958,4.958,0,0,1,.673.006,4.818,4.818,0,0,1,2.509.912,4.825,4.825,0,0,1,1,.947h0a.021.021,0,0,0,.027.005.021.021,0,0,0,.008-.029A4.213,4.213,0,0,0,138.93,314.7Z" transform="translate(-117.411 -301.171)" fill="#a86e1a"/>
      </g>
      <g id="Group_6740" data-name="Group 6740" transform="translate(36.606 12.111)">
        <path id="Path_25081" data-name="Path 25081" d="M267.155,117.672a.318.318,0,0,1-.318-.318,1.21,1.21,0,0,1,.271-.777.617.617,0,0,0,0-.812,1.246,1.246,0,0,1,0-1.553.615.615,0,0,0,0-.811,1.245,1.245,0,0,1,0-1.552.586.586,0,0,0,.152-.405.318.318,0,0,1,.636,0,1.208,1.208,0,0,1-.272.776.615.615,0,0,0,0,.811,1.245,1.245,0,0,1,0,1.552.617.617,0,0,0,0,.812,1.246,1.246,0,0,1,0,1.553.587.587,0,0,0-.152.406A.318.318,0,0,1,267.155,117.672Z" transform="translate(-266.837 -111.126)" fill="#44113d"/>
        <path id="Path_25082" data-name="Path 25082" d="M274.983,118.675a.318.318,0,0,1-.318-.318,1.464,1.464,0,0,1,.259-.858.919.919,0,0,0,0-1.051,1.55,1.55,0,0,1,0-1.715.917.917,0,0,0,0-1.049,1.548,1.548,0,0,1,0-1.714.849.849,0,0,0,.165-.525.318.318,0,1,1,.636,0,1.462,1.462,0,0,1-.259.857.917.917,0,0,0,0,1.049,1.548,1.548,0,0,1,0,1.714.919.919,0,0,0,0,1.051,1.551,1.551,0,0,1,0,1.716.851.851,0,0,0-.165.526A.318.318,0,0,1,274.983,118.675Z" transform="translate(-273.006 -111.126)" fill="#44113d"/>
        <path id="Path_25083" data-name="Path 25083" d="M282.811,119.465a.318.318,0,0,1-.318-.318,1.7,1.7,0,0,1,.251-.924,1.191,1.191,0,0,0,0-1.235,1.822,1.822,0,0,1,0-1.847,1.189,1.189,0,0,0,0-1.234,1.822,1.822,0,0,1,0-1.847,1.083,1.083,0,0,0,.173-.617.318.318,0,0,1,.636,0,1.706,1.706,0,0,1-.251.923,1.188,1.188,0,0,0,0,1.234,1.823,1.823,0,0,1,0,1.847,1.189,1.189,0,0,0,0,1.234,1.825,1.825,0,0,1,0,1.848,1.083,1.083,0,0,0-.173.617A.318.318,0,0,1,282.811,119.465Z" transform="translate(-279.175 -111.126)" fill="#44113d"/>
        <path id="Path_25084" data-name="Path 25084" d="M290.639,120.373a.318.318,0,0,1-.318-.318,1.99,1.99,0,0,1,.245-1,1.542,1.542,0,0,0,0-1.442,2.172,2.172,0,0,1,0-2,1.539,1.539,0,0,0,0-1.441,2.171,2.171,0,0,1,0-2,1.376,1.376,0,0,0,.179-.721.318.318,0,0,1,.636,0,1.989,1.989,0,0,1-.245,1,1.538,1.538,0,0,0,0,1.441,2.172,2.172,0,0,1,0,2,1.539,1.539,0,0,0,0,1.442,2.173,2.173,0,0,1,0,2,1.375,1.375,0,0,0-.179.721A.318.318,0,0,1,290.639,120.373Z" transform="translate(-285.344 -111.126)" fill="#44113d"/>
      </g>
      <path id="Path_25085" data-name="Path 25085" d="M224.536,182.568c-.341-.221-1.113-.345-2.18-.861.891-.06,2.135-.274,2.209-1,.116-1.132-2.408-2.467-4.242-1.991-.886.23-1.11.7-1.106,1.13a6.548,6.548,0,0,0-2.146-.561h0a6.547,6.547,0,0,0-2.146.561c0-.427-.22-.9-1.106-1.13-1.834-.475-4.358.859-4.242,1.991.074.722,1.318.936,2.209,1-1.067.516-1.839.64-2.18.861a1.354,1.354,0,0,0-.69,1.828c.429.987,2.373,2.5,6.232.406.7-.377,1.338-.68,1.923-.925.586.245,1.227.548,1.923.925,3.859,2.089,5.8.58,6.232-.406A1.354,1.354,0,0,0,224.536,182.568Z" transform="translate(-184.471 -152.205)" fill="#f98f9b"/>
      <g id="Group_6741" data-name="Group 6741" transform="translate(23.251 23.039)">
        <path id="Path_25086" data-name="Path 25086" d="M203.983,163.844a15,15,0,0,1,1.594-.414c.527-.111,1.051-.21,1.574-.3s1.045-.176,1.573-.253,1.056-.16,1.627-.19h.01a.221.221,0,0,1,.152.392,5.539,5.539,0,0,1-1.5.865,8.116,8.116,0,0,1-1.646.46,8.83,8.83,0,0,1-1.7.128,6.063,6.063,0,0,1-1.7-.264.221.221,0,0,1,0-.42Z" transform="translate(-203.821 -162.686)" fill="#44113d"/>
        <path id="Path_25087" data-name="Path 25087" d="M209.485,176.868a3.878,3.878,0,0,1,1.242-.737,5.62,5.62,0,0,1,1.364-.329,5.445,5.445,0,0,1,1.41.015,3.719,3.719,0,0,1,1.374.46.117.117,0,0,1-.015.209l0,0a8.156,8.156,0,0,1-1.328.384c-.43.09-.857.157-1.286.21a12.629,12.629,0,0,1-1.308.089,7,7,0,0,1-1.385-.1h-.006a.117.117,0,0,1-.093-.136A.116.116,0,0,1,209.485,176.868Z" transform="translate(-208.254 -172.992)" fill="#6d1b5e"/>
        <path id="Path_25088" data-name="Path 25088" d="M223.22,183.485a.106.106,0,0,1-.017-.211,4.584,4.584,0,0,0,1.75-.672.106.106,0,0,1,.123.173,4.709,4.709,0,0,1-1.839.709Z" transform="translate(-219.026 -178.366)" fill="#d83950"/>
        <path id="Path_25089" data-name="Path 25089" d="M216.382,173.388a.106.106,0,0,1-.049-.2,4.251,4.251,0,0,1,2.41-.252.106.106,0,1,1-.029.21,4.1,4.1,0,0,0-2.283.231A.106.106,0,0,1,216.382,173.388Z" transform="translate(-213.636 -170.719)" fill="#8a3579"/>
        <path id="Path_25090" data-name="Path 25090" d="M266.689,163.844a15,15,0,0,0-1.594-.414c-.527-.111-1.051-.21-1.574-.3s-1.045-.176-1.573-.253-1.056-.16-1.627-.19h-.01a.221.221,0,0,0-.152.392,5.537,5.537,0,0,0,1.5.865,8.11,8.11,0,0,0,1.646.46,8.831,8.831,0,0,0,1.7.128,6.063,6.063,0,0,0,1.7-.264.221.221,0,0,0,0-.42Z" transform="translate(-248.155 -162.686)" fill="#44113d"/>
        <path id="Path_25091" data-name="Path 25091" d="M265.971,176.868a3.878,3.878,0,0,0-1.243-.737,5.619,5.619,0,0,0-1.364-.329,5.443,5.443,0,0,0-1.41.015,3.72,3.72,0,0,0-1.374.46.117.117,0,0,0-.042.16.116.116,0,0,0,.057.049l0,0a8.155,8.155,0,0,0,1.328.384c.431.09.857.157,1.286.21a12.63,12.63,0,0,0,1.308.089,7,7,0,0,0,1.385-.1h.006a.117.117,0,0,0,.058-.2Z" transform="translate(-248.506 -172.992)" fill="#6d1b5e"/>
        <path id="Path_25092" data-name="Path 25092" d="M265.173,183.485a.106.106,0,0,0,.017-.211,4.58,4.58,0,0,1-1.75-.672.106.106,0,1,0-.123.173,4.7,4.7,0,0,0,1.839.709Z" transform="translate(-250.672 -178.366)" fill="#d83950"/>
        <path id="Path_25093" data-name="Path 25093" d="M269.958,173.388a.106.106,0,0,0,.049-.2,4.251,4.251,0,0,0-2.41-.252.106.106,0,1,0,.029.21,4.1,4.1,0,0,1,2.283.231A.106.106,0,0,0,269.958,173.388Z" transform="translate(-254.008 -170.719)" fill="#8a3579"/>
      </g>
      <g id="Group_6742" data-name="Group 6742" transform="translate(31.015 32.833)">
        <path id="Path_25094" data-name="Path 25094" d="M241.486,209.471a.087.087,0,0,0,.037-.154c-.264-.2-.821-.567-1.009-.356C240.283,209.22,240.748,209.613,241.486,209.471Z" transform="translate(-240.454 -208.898)" fill="#44113d"/>
        <path id="Path_25095" data-name="Path 25095" d="M250.268,209.471a.087.087,0,0,1-.037-.154c.264-.2.822-.567,1.009-.356C251.47,209.22,251.006,209.613,250.268,209.471Z" transform="translate(-248.132 -208.898)" fill="#44113d"/>
      </g>
      <path id="Path_25096" data-name="Path 25096" d="M237.276,221.673a1.434,1.434,0,0,1-.835-.248,1.109,1.109,0,0,0-1.235,0,1.53,1.53,0,0,1-1.67,0,1.106,1.106,0,0,0-1.232,0,1.529,1.529,0,0,1-1.669,0,1.016,1.016,0,0,0-.616-.188.212.212,0,0,1,0-.424,1.432,1.432,0,0,1,.835.248,1.107,1.107,0,0,0,1.232,0,1.528,1.528,0,0,1,1.669,0,1.109,1.109,0,0,0,1.233,0,1.531,1.531,0,0,1,1.671,0,1.019,1.019,0,0,0,.617.187.212.212,0,0,1,0,.424Z" transform="translate(-201.049 -185.455)" fill="#44113d"/>
      <path id="Path_25097" data-name="Path 25097" d="M242.773,227.808a.838.838,0,0,1-.689-.43,1.094,1.094,0,0,1-1.014.413.106.106,0,0,1,.04-.208h0a.871.871,0,0,0,.893-.466.106.106,0,0,1,.191.014c.008.021.21.522.65.461a.106.106,0,0,1,.029.21A.783.783,0,0,1,242.773,227.808Z" transform="translate(-209.858 -190.38)" fill="#d83950"/>
      <g id="Group_6743" data-name="Group 6743" transform="translate(24.395 28.68)">
        <path id="Path_25098" data-name="Path 25098" d="M209.586,214.812c-.04.222-.086.438-.121.652a2.863,2.863,0,0,0-.036.317.673.673,0,0,0,.028.28c.029.071.065.095.159.089a.179.179,0,0,0,.185-.1.577.577,0,0,0,.016-.289,2.562,2.562,0,0,0-.068-.323,1.193,1.193,0,0,1,.169.3.61.61,0,0,1,.041.366.3.3,0,0,1-.128.181.423.423,0,0,1-.2.067.353.353,0,0,1-.218-.034.341.341,0,0,1-.153-.176,1.185,1.185,0,0,1,.043-.714A2.53,2.53,0,0,1,209.586,214.812Z" transform="translate(-209.221 -209.405)" fill="#07080a"/>
        <path id="Path_25099" data-name="Path 25099" d="M218.323,222.841c-.04.222-.086.438-.121.652a2.917,2.917,0,0,0-.036.317.669.669,0,0,0,.029.28c.029.071.065.095.159.089a.18.18,0,0,0,.185-.1.577.577,0,0,0,.016-.289,2.566,2.566,0,0,0-.068-.323,1.193,1.193,0,0,1,.168.3.611.611,0,0,1,.041.366.3.3,0,0,1-.128.181.422.422,0,0,1-.2.067.354.354,0,0,1-.219-.034.339.339,0,0,1-.153-.176,1.185,1.185,0,0,1,.043-.714A2.53,2.53,0,0,1,218.323,222.841Z" transform="translate(-216.107 -215.732)" fill="#07080a"/>
        <path id="Path_25100" data-name="Path 25100" d="M289.628,189.3a2.526,2.526,0,0,1,.282.614,1.185,1.185,0,0,1,.043.714.338.338,0,0,1-.153.176.352.352,0,0,1-.218.034.422.422,0,0,1-.2-.067.3.3,0,0,1-.128-.182.611.611,0,0,1,.041-.366,1.2,1.2,0,0,1,.168-.3,2.563,2.563,0,0,0-.068.323.576.576,0,0,0,.016.289.179.179,0,0,0,.185.1c.094.006.13-.018.159-.089a.669.669,0,0,0,.029-.28,2.912,2.912,0,0,0-.036-.317C289.714,189.737,289.668,189.522,289.628,189.3Z" transform="translate(-272.281 -189.3)" fill="#07080a"/>
      </g>
      <path id="Path_25101" data-name="Path 25101" d="M239.827,250.515a8.472,8.472,0,0,1,1.221,1.1,12.227,12.227,0,0,1,1.036,1.276,10.739,10.739,0,0,1,.844,1.414,7.444,7.444,0,0,1,.577,1.541c-.3-.464-.567-.928-.865-1.377s-.588-.9-.9-1.334C241.124,252.252,240.472,251.4,239.827,250.515Z" transform="translate(-208.945 -208.861)" fill="#d83d5e"/>
      <g id="Group_6744" data-name="Group 6744" transform="translate(6.123 46.179)">
        <path id="Path_25102" data-name="Path 25102" d="M144.184,304.894c-.013.019-.023.04-.036.059-.025.042-.051.085-.078.127-.1.163-.208.343-.324.534a41.684,41.684,0,0,0-4.324,9.188c-1.244,4.622-.829,6.282-1.895,6.282s-6.282-1.719-7.17-1.778-5.629.415-6.519-.71a1.188,1.188,0,0,1-.191-.4c1.575.6,5.154.265,5.913.316.888.059,6.1,1.778,7.17,1.778s.653-1.66,1.9-6.28a40.484,40.484,0,0,1,4.11-8.838c.174-.29.333-.557.479-.795.051.032.1.061.155.091.263.15.53.292.8.422Z" transform="translate(-123.512 -297.485)" fill="#d83d5e"/>
        <path id="Path_25103" data-name="Path 25103" d="M142.713,278.755c-.146.237-.305.5-.479.795a40.485,40.485,0,0,0-4.11,8.838c-1.244,4.62-.831,6.28-1.9,6.28s-6.282-1.719-7.17-1.778c-.759-.051-4.338.288-5.913-.316-.371-1.242.028-4.254,1.117-7.39.1-.295.21-.591.326-.888a23.762,23.762,0,0,1,1.3-2.815,78.615,78.615,0,0,1,5.7-8.363c.335-.441.655-.86.958-1.253.078.1.157.191.237.282a.056.056,0,0,1,.011.013c.078.087.157.17.235.252a9.241,9.241,0,0,0,.765.716c.174.144.348.28.523.409h0c.089.064.178.127.267.186s.176.119.265.174.161.1.239.146a.332.332,0,0,0,.051.032c.078.047.155.089.231.134.017.008.034.017.051.028l.218.117.246.125c.176.085.35.163.517.235.076.034.153.066.227.1l.017.006c.117.047.231.091.343.131.042.017.087.032.127.047.068.023.134.044.2.068.044.013.087.028.127.04.072.023.14.044.208.064.034.011.068.021.1.03.1.028.189.053.278.076.036.011.07.019.1.028l.153.036c.106.025.2.047.29.064l.078.017.07.013.125.021a.656.656,0,0,0,.078.013l.034.006.042.006.038,0c.085.108.174.22.273.337.03.038.061.078.1.119.059.07.119.14.182.212s.127.142.193.216.136.146.206.22.144.148.22.225c.2.2.407.4.634.593.068.059.14.121.21.18.087.072.178.146.269.218q.4.315.848.617c.089.061.182.121.276.178.07.044.14.087.212.129Z" transform="translate(-123.009 -271.865)" fill="#f4516d"/>
      </g>
      <path id="Path_25104" data-name="Path 25104" d="M168.8,295.778c-.256.193-.827.135-1.168.4-.9.7-1.781,1.523-3.15,2.663-2.083,1.736-4.295,4.36-6,5.752,1.409-1.566,3.175-4.141,5.313-5.922,1.369-1.145,2.545-2.079,3.444-2.774.356-.276.668-.515.93-.714C168.362,295.382,168.572,295.581,168.8,295.778Z" transform="translate(-144.837 -244.064)" fill="#c42c54"/>
      <path id="Path_25105" data-name="Path 25105" d="M129.57,291.938c-.263.2-.574.439-.93.714-.9.7-2.075,1.63-3.444,2.774-2.138,1.78-3.9,4.355-5.313,5.922a5.475,5.475,0,0,1-2.24,1.318h0c-.748.085-2.406-1.015-4.021-2.353A32.216,32.216,0,0,1,111.1,298l-.013-.011a9.2,9.2,0,0,1-1.4-1.719,1.751,1.751,0,0,1-.136-1.189,10.725,10.725,0,0,0,1.327,1.585l.013.011a32.222,32.222,0,0,0,3.056,2.753c1.435,1.134,2.817,1.992,3.482,1.918h0a5.474,5.474,0,0,0,2.24-1.318c1.409-1.566,3.175-4.141,5.313-5.922,1.072-.894,2.026-1.664,2.821-2.289l.964-.75c.059.07.119.14.182.212s.127.142.193.216.136.146.206.22S129.494,291.862,129.57,291.938Z" transform="translate(-106.242 -240.817)" fill="#d83d5e"/>
      <path id="Path_25106" data-name="Path 25106" d="M128.938,262.167l-.964.75c-.795.625-1.749,1.395-2.821,2.289-2.138,1.78-3.9,4.355-5.313,5.922a5.475,5.475,0,0,1-2.24,1.318h0c-.666.074-2.047-.784-3.482-1.918a32.213,32.213,0,0,1-3.056-2.753l-.013-.011a10.723,10.723,0,0,1-1.327-1.585c.28-1.4,1.854-3.277,4.224-6.138a30.441,30.441,0,0,1,4.962-4.68c.456-.345.88-.651,1.257-.909.03-.019.057-.04.085-.057q.051.207.108.413c.04.138.085.276.131.413.023.07.047.138.072.206s.049.131.074.2c.055.14.114.28.176.42.055.123.11.242.17.358.025.053.051.1.078.155.121.231.248.454.381.663.038.061.076.121.117.178.055.083.11.163.167.242s.114.157.172.233c0,0,0,0,0,.006.057.074.114.148.174.218.078.1.157.191.237.282a.055.055,0,0,1,.011.013c.078.087.157.17.235.252a9.245,9.245,0,0,0,.765.716c.174.144.348.28.523.409h0c.089.064.178.127.267.187s.176.119.265.174.161.1.239.146a.331.331,0,0,0,.051.032c.078.047.155.089.231.134.017.008.034.017.051.028l.218.117.246.125c.176.085.35.163.517.235.076.034.153.066.227.1l.017.006c.117.047.231.091.343.131.042.017.087.032.127.047.068.023.134.044.2.068.045.013.087.028.127.04.072.023.14.045.208.064l.1.03c.1.028.189.053.278.076.036.011.07.019.1.028l.153.036c.106.025.2.047.29.064l.078.017.07.013.125.021a.668.668,0,0,0,.078.013l.034.006.042.006.038,0c.085.108.174.22.273.337C128.868,262.086,128.9,262.127,128.938,262.167Z" transform="translate(-106.411 -211.919)" fill="#f4516d"/>
      <path id="Path_25107" data-name="Path 25107" d="M163.626,264.316a9.37,9.37,0,0,0,2.092,1.361c.064.034.129.066.195.1q.5.248,1.009.445c.117-.191.225-.371.324-.534.028-.042.053-.085.078-.127.013-.019.023-.04.036-.059l-.013-.006c-.271-.129-.538-.271-.8-.422-.053-.03-.1-.059-.155-.091l-.051-.032c-.072-.042-.142-.085-.212-.129-.093-.057-.187-.117-.276-.178q-.451-.3-.848-.617c-.091-.072-.18-.144-.269-.218-.07-.059-.142-.121-.21-.18-.227-.2-.437-.4-.634-.593-.076-.076-.148-.15-.22-.225s-.14-.148-.206-.22-.131-.146-.193-.216-.123-.142-.182-.212c-.038-.04-.07-.081-.1-.119-.1-.117-.189-.229-.273-.337l-.038,0-.042-.006-.034-.006a.674.674,0,0,1-.078-.013l-.125-.021-.07-.013-.078-.017c-.087-.017-.184-.038-.29-.064l-.153-.036c-.034-.008-.068-.017-.1-.028-.089-.023-.182-.049-.278-.076l-.1-.03c-.068-.019-.136-.04-.208-.064-.04-.013-.083-.028-.127-.04-.064-.023-.129-.044-.2-.068-.04-.015-.085-.03-.127-.047-.112-.04-.227-.085-.343-.131l-.017-.006c-.074-.03-.15-.061-.227-.1-.167-.072-.341-.15-.517-.235l-.246-.125-.218-.117c-.017-.011-.034-.019-.051-.028-.076-.045-.153-.087-.231-.134a.336.336,0,0,1-.051-.032c-.078-.044-.159-.1-.239-.146s-.176-.114-.265-.174-.178-.123-.267-.187h0c-.176-.129-.35-.265-.523-.409a9.245,9.245,0,0,1-.765-.716c-.078-.083-.157-.165-.235-.252a.056.056,0,0,0-.011-.013c-.081-.091-.159-.187-.237-.282-.059-.07-.117-.144-.174-.218,0,0,0,0,0-.006-.057-.076-.114-.153-.172-.233s-.112-.159-.167-.242c-.04-.057-.078-.117-.117-.178-.133-.21-.261-.432-.381-.663-.028-.051-.053-.1-.078-.155-.059-.117-.114-.235-.17-.358-.061-.14-.121-.28-.176-.42-.025-.066-.051-.131-.074-.2s-.049-.136-.072-.206c-.047-.138-.091-.276-.131-.413s-.074-.276-.108-.413v0l-.085.059c-.377.259-.8.564-1.257.909a9.585,9.585,0,0,0,.687,1.806,9.109,9.109,0,0,0,1.522,2.183c2.626,2.791,6.887,2.8,7.1,2.817A6.239,6.239,0,0,0,163.626,264.316Z" transform="translate(-140.565 -211.911)" fill="#c42c54"/>
      <path id="Path_25108" data-name="Path 25108" d="M229.371,360.906c-2.762,0-5,.581-5,1.3l.639,10.88c0,.625,1.953,1.131,4.363,1.131s4.363-.506,4.363-1.131l.639-10.88C234.372,361.487,232.133,360.906,229.371,360.906Z" transform="translate(-196.763 -295.856)" fill="#dae5e1"/>
      <path id="Path_25109" data-name="Path 25109" d="M236.335,364.034c0,.176-.305.337-.822.468a18.455,18.455,0,0,1-6.911,0c-.519-.131-.824-.292-.824-.468,0-.441,1.916-.8,4.279-.8S236.335,363.593,236.335,364.034Z" transform="translate(-199.449 -297.693)" fill="#c2d3cc"/>
      <path id="Path_25110" data-name="Path 25110" d="M193.353,371.453c1.212-1.583,6.164-4.429,6.164-4.429l.151,2.576a3.006,3.006,0,0,1,2.51.742c1.516,1.078,2.667,2.122,2.142,2.661s-3.59-1.482-4.23-1.179c0,0,4.715,3.6,4.075,4.985-.194.418-.814.347-1.584.047.423.511.67.954.54,1.2-.226.425-1.218.042-2.175-.461.49.675.863,1.358.625,1.64-.539.64-3.806-1.987-3.806-1.987s-3.065-.1-4.177-1.482C193.589,375.764,192.14,373.036,193.353,371.453Z" transform="translate(-171.94 -300.677)" fill="#ffabb2"/>
      <path id="Path_25111" data-name="Path 25111" d="M217.875,379.177c-.284.113-.568.2-.843.31-.138.052-.275.108-.407.172a2.311,2.311,0,0,0-.383.227,1.062,1.062,0,0,1,.326-.326,2.026,2.026,0,0,1,.411-.209A2.551,2.551,0,0,1,217.875,379.177Z" transform="translate(-190.359 -310.255)" fill="#d83950"/>
      <path id="Path_25112" data-name="Path 25112" d="M259.394,371.453c-1.212-1.583-6.164-4.429-6.164-4.429l-.151,2.576a3.006,3.006,0,0,0-2.51.742c-1.516,1.078-2.667,2.122-2.142,2.661s3.59-1.482,4.23-1.179c0,0-4.715,3.6-4.075,4.985.194.418.814.347,1.584.047-.423.511-.67.954-.54,1.2.226.425,1.218.042,2.175-.461-.49.675-.863,1.358-.625,1.64.539.64,3.806-1.987,3.806-1.987s3.065-.1,4.176-1.482C259.158,375.764,260.606,373.036,259.394,371.453Z" transform="translate(-215.621 -300.677)" fill="#ffabb2"/>
      <path id="Path_25113" data-name="Path 25113" d="M271.854,379.177a2.552,2.552,0,0,1,.9.173,2.032,2.032,0,0,1,.411.209,1.061,1.061,0,0,1,.326.326,2.311,2.311,0,0,0-.383-.227c-.132-.064-.269-.12-.407-.172C272.422,379.379,272.138,379.29,271.854,379.177Z" transform="translate(-234.184 -310.255)" fill="#d83950"/>
      <path id="Path_25114" data-name="Path 25114" d="M259.808,402.766c.262-.216.533-.418.806-.619s.552-.391.828-.587.561-.377.847-.559.573-.36.87-.526c-.262.216-.533.419-.806.619s-.552.391-.828.586-.561.378-.847.559S260.1,402.6,259.808,402.766Z" transform="translate(-224.691 -327.04)" fill="#d83950"/>
      <path id="Path_25115" data-name="Path 25115" d="M266.8,411.383a7.554,7.554,0,0,1,.894-.668,7.42,7.42,0,0,1,.974-.545,7.45,7.45,0,0,1-.894.668A7.535,7.535,0,0,1,266.8,411.383Z" transform="translate(-230.202 -334.68)" fill="#d83950"/>
      <path id="Path_25116" data-name="Path 25116" d="M238.578,366.866a18.454,18.454,0,0,1-6.911,0c.108-.352,1.613-.629,3.455-.629S238.47,366.515,238.578,366.866Z" transform="translate(-202.515 -300.057)" fill="#d07944"/>
      <path id="Path_25117" data-name="Path 25117" d="M252.305,377.86a.106.106,0,0,1-.1-.071c-.965-2.742-.856-7.463-.855-7.51a.11.11,0,0,1,.109-.1.106.106,0,0,1,.1.108c0,.047-.11,4.729.843,7.435a.106.106,0,0,1-.065.135A.1.1,0,0,1,252.305,377.86Z" transform="translate(-218.023 -303.161)" fill="#44113d"/>
      <path id="Path_25118" data-name="Path 25118" d="M254.659,405.667l-1.5.585a.157.157,0,0,1-.2-.089l-.617-1.578a.157.157,0,0,1,.005-.125l.478-.984a.157.157,0,0,1,.2-.077l1.018.4a.157.157,0,0,1,.089.089l.616,1.578A.156.156,0,0,1,254.659,405.667Z" transform="translate(-218.8 -329.334)" fill="#fff"/>
    </g>
  </g>
</svg>
