  <svg
    xmlns="http://www.w3.org/2000/svg"
    width="60"
    height="83.747"
    viewBox="0 0 60 83.747"
  >
    <g id="illustration" transform="translate(-175.919 -52.329)">
      <path
        id="Path_24768"
        data-name="Path 24768"
        d="M217.278,57.225c-4.322-.384-8.012-3.249-12.2-4.374A15.708,15.708,0,0,0,193.9,54.056c-2.512,1.3-4.748,3.456-5.379,6.212-.723,3.162.716,6.709-.734,9.61a12.115,12.115,0,0,1-2.726,3.158A42.165,42.165,0,0,0,177.16,83.29a8.655,8.655,0,0,0-1.223,3.361c-.355,4.2,4.521,6.932,5.813,10.946,1.014,3.15-.319,6.7.728,9.841a10.316,10.316,0,0,0,2.082,3.389,25.942,25.942,0,0,0,12.236,7.6,44.065,44.065,0,0,0,14.451,1.548,30.126,30.126,0,0,0,12.375-2.673,9.859,9.859,0,0,0,3.588-2.786c2.3-3.094,1.492-7.443,2.564-11.144,1.393-4.806,5.97-8.539,6.14-13.539.19-5.607-5.242-9.949-6.057-15.5-.277-1.883,0-3.8-.146-5.7a12.866,12.866,0,0,0-15.657-11.568"
        transform="translate(0)"
        fill="#f25500"
      />
      <path
        id="Path_24769"
        data-name="Path 24769"
        d="M238.235,129.938a7.447,7.447,0,0,1-1.742,4.224c-1.242,1.389-2.966,2.253-4.175,3.675-2.552,3-2.59,7.246-3.848,10.811a10.527,10.527,0,0,1-3,4.628,16.968,16.968,0,0,1-4.726,2.813,24.826,24.826,0,0,1-11.1,1.437,36.25,36.25,0,0,1-11.132-2.7c-3.254-1.36-6.841-3.159-8.708-6.289a16.679,16.679,0,0,1-1.661-4.458,38.692,38.692,0,0,0-1.545-5.1,5.376,5.376,0,0,0-1.5-2.272,11.434,11.434,0,0,0-2.118-1.2,24.345,24.345,0,0,1-2.467-1.408c1.38,1.8,3.052,3.56,3.732,5.672,1.014,3.15-.319,6.7.728,9.841A10.317,10.317,0,0,0,187.059,153a25.938,25.938,0,0,0,12.236,7.6,44.053,44.053,0,0,0,14.451,1.549,30.126,30.126,0,0,0,12.375-2.673,9.859,9.859,0,0,0,3.588-2.786c2.3-3.094,1.492-7.443,2.564-11.144,1.393-4.806,5.97-8.539,6.14-13.539A8.935,8.935,0,0,0,238.235,129.938Z"
        transform="translate(-2.499 -42.172)"
        fill="#d94c00"
      />
      <path
        id="Path_24770"
        data-name="Path 24770"
        d="M216.782,99.547c0,1.993-1.543,4.237-3.509,4.237s-3.609-2.244-3.609-4.237a3.559,3.559,0,1,1,7.118,0Z"
        transform="translate(-18.337 -23.697)"
        fill="#f2bb9d"
      />
      <path
        id="Path_24771"
        data-name="Path 24771"
        d="M212.453,106.4a4.968,4.968,0,0,0,.512-.452,3.015,3.015,0,0,0,.359-3.687,2.762,2.762,0,0,0-3.234-1.147c-.079.018-.164.04-.248.062a3.64,3.64,0,0,0-.179,1.124A4.506,4.506,0,0,0,212.453,106.4Z"
        transform="translate(-18.337 -26.449)"
        fill="#eb9f76"
      />
      <path
        id="Path_24772"
        data-name="Path 24772"
        d="M274.909,99.547c0,1.993-1.487,4.394-3.452,4.394s-3.665-2.4-3.665-4.394a3.559,3.559,0,1,1,7.117,0Z"
        transform="translate(-49.923 -23.697)"
        fill="#eb9f76"
      />
      <path
        id="Path_24773"
        data-name="Path 24773"
        d="M270.79,102.1c-.036-1.507.123-3.494,1.531-4.392a2.451,2.451,0,0,1,1.874-.325,3.533,3.533,0,0,0-2.845-1.447,3.584,3.584,0,0,0-3.558,3.609c0,1.815,1.41,3.961,3.146,4.332A16.342,16.342,0,0,1,270.79,102.1Z"
        transform="translate(-49.923 -23.697)"
        fill="#f2bb9d"
      />
      <path
        id="Path_24774"
        data-name="Path 24774"
        d="M242.641,142.589h0a3.777,3.777,0,0,1-3.766-3.766v-7.846a3.777,3.777,0,0,1,3.766-3.766h0a3.777,3.777,0,0,1,3.766,3.766v7.846A3.777,3.777,0,0,1,242.641,142.589Z"
        transform="translate(-34.21 -40.69)"
        fill="#f2bb9d"
      />
      <path
        id="Path_24775"
        data-name="Path 24775"
        d="M245.907,134.88c.167.021.334.036.5.048v-3.952a3.777,3.777,0,0,0-3.766-3.766h0a3.777,3.777,0,0,0-3.766,3.766v.925A15.67,15.67,0,0,0,245.907,134.88Z"
        transform="translate(-34.21 -40.69)"
        fill="#eb9f76"
      />
      <ellipse
        id="Ellipse_308"
        data-name="Ellipse 308"
        cx="14.262"
        cy="16.32"
        rx="14.262"
        ry="16.32"
        transform="translate(194.012 58.118)"
        fill="#f2bb9d"
      />
      <path
        id="Path_24776"
        data-name="Path 24776"
        d="M239.861,92.981a9.278,9.278,0,0,1-6,2.513,18.636,18.636,0,0,1-8.9-1.709,12.862,12.862,0,0,1-4.7-4.142,10.177,10.177,0,0,1-2.139-5.847,6.047,6.047,0,0,1,3.127-5.137c2.676-1.687,5.609-2.9,8.422-4.33a36.077,36.077,0,0,0,6.971-4.508,19.6,19.6,0,0,0,2.1-2.026,13.932,13.932,0,0,0-8.925-2.786c-9.809,0-14.262,7.307-14.262,16.32s3.173,16.319,14.262,16.319c9.061,0,12.621-4.332,13.781-10.438A16.147,16.147,0,0,1,239.861,92.981Z"
        transform="translate(-21.532 -6.89)"
        fill="#f2a57b"
      />
      <path
        id="Path_24777"
        data-name="Path 24777"
        d="M272.2,78.62c.265,1.385.54,2.77.756,4.164.212,1.368.337,2.75.593,4.111a6.283,6.283,0,0,0,.832,2.474q.032-.914.033-1.85a23.592,23.592,0,0,0-3.12-12.546A24.969,24.969,0,0,1,272.2,78.62Z"
        transform="translate(-51.826 -12.305)"
        fill="#f25500"
      />
      <path
        id="Path_24778"
        data-name="Path 24778"
        d="M217.15,94.338a12.348,12.348,0,0,1,.428-2.066,6.457,6.457,0,0,1-1.777.274,24.783,24.783,0,0,0-.257,3.6c0,.173,0,.345.005.517a1.7,1.7,0,0,0,1.175-.415C217.209,95.782,217.078,94.94,217.15,94.338Z"
        transform="translate(-21.532 -21.705)"
        fill="#f25500"
      />
      <path
        id="Path_24779"
        data-name="Path 24779"
        d="M235.784,65.244a15.45,15.45,0,0,0-6.89-1.5c-8.974,0-14.022,6.358-15.679,15.169a54.858,54.858,0,0,0,15.2-7.735c2.421-1.746,4.883-3.427,7.159-5.438.073-.064.145-.13.218-.195C235.788,65.447,235.784,65.345,235.784,65.244Z"
        transform="translate(-20.266 -6.204)"
        fill="#f25500"
      />
      <path
        id="Path_24780"
        data-name="Path 24780"
        d="M262.563,67.7a4.845,4.845,0,0,0,.1.518,9.99,9.99,0,0,0,1.2,2.8,13.38,13.38,0,0,0,5.155,4.614,13.839,13.839,0,0,0-6.3-8.048C262.667,67.627,262.614,67.663,262.563,67.7Z"
        transform="translate(-47.081 -8.291)"
        fill="#f25500"
      />
      <path
        id="Path_24781"
        data-name="Path 24781"
        d="M240.14,109.766c.252-1.856,1.815-2.91,3.549-3.425a31.988,31.988,0,0,0,.378-4.754c-1.511,2.152-3.513,4.228-6.086,4.879a11.116,11.116,0,0,1-6.025-.686,4.676,4.676,0,0,0-4.167-.081,10.573,10.573,0,0,1-5.381.268,11.046,11.046,0,0,1-4.427-2.243,15.734,15.734,0,0,1-2.431-2.486,29.724,29.724,0,0,0,.337,4.431,5.674,5.674,0,0,1,2.778,1.472,3.3,3.3,0,0,1,.9,3.1,3.575,3.575,0,0,1-1.4,1.789c2.138,3.257,5.787,5.3,11.649,5.3,6.172,0,9.79-2.011,11.838-5.222A2.125,2.125,0,0,1,240.14,109.766Z"
        transform="translate(-21.535 -26.577)"
        fill="#fff"
      />
      <g
        id="Group_6674"
        data-name="Group 6674"
        transform="translate(206.575 72.669)"
      >
        <path
          id="Path_24782"
          data-name="Path 24782"
          d="M245.966,101.781c.016.032-.074.127-.279.234a2.277,2.277,0,0,1-.956.236,2.443,2.443,0,0,1-.7-.074,1.437,1.437,0,0,1-.747-.447.982.982,0,0,1-.137-1.047.778.778,0,0,1,.488-.407,1.474,1.474,0,0,1,.539-.033,2.022,2.022,0,0,0,.384.012.241.241,0,0,0,.182-.093,1.562,1.562,0,0,0,.137-.652c.053-.512.09-.975.121-1.365.061-.78.1-1.268.18-1.271s.17.482.209,1.277c.018.4.021.871,0,1.4-.008.133-.011.26-.029.416a1.131,1.131,0,0,1-.174.51.784.784,0,0,1-.546.323,2.325,2.325,0,0,1-.5-.006,1.025,1.025,0,0,0-.343.01.233.233,0,0,0-.159.124.479.479,0,0,0,.052.49,1.53,1.53,0,0,0,1.056.448C245.475,101.922,245.931,101.7,245.966,101.781Z"
          transform="translate(-243.057 -96.874)"
          fill="#e6a07a"
        />
      </g>
      <ellipse
        id="Ellipse_309"
        data-name="Ellipse 309"
        cx="0.785"
        cy="1.02"
        rx="0.785"
        ry="1.02"
        transform="translate(201.684 73.81)"
        fill="#3a344d"
      />
      <ellipse
        id="Ellipse_310"
        data-name="Ellipse 310"
        cx="0.785"
        cy="1.02"
        rx="0.785"
        ry="1.02"
        transform="translate(213.453 73.81)"
        fill="#3a344d"
      />
      <path
        id="Path_24783"
        data-name="Path 24783"
        d="M239.388,190.772c3.377-4,4.68-9.6,4.68-15.818,0-12.133-8.009-21.969-17.889-21.969s-17.889,9.835-17.889,21.969c0,6.215,1.3,11.822,4.68,15.818Z"
        transform="translate(-17.59 -54.695)"
        fill="#f2bb9d"
      />
      <path
        id="Path_24784"
        data-name="Path 24784"
        d="M237.69,169.243c-2.932-5.232-7.447-10.323-13.052-12.653-1.308,3.29-5.344,4.185-8.525,3.731-2.412-.345-4.935-1.659-5.914-3.836-6.277,1.919-10.6,7.036-13.808,12.759-3.362,6-4.626,12.95-4.694,19.792a23.739,23.739,0,0,0,.2,3.638h11c-.034-.442-.078-.884-.121-1.325a16.209,16.209,0,0,0,1.015,1.325h26.861q.316-.367.607-.753c-.024.251-.047.5-.066.753h11a23.681,23.681,0,0,0,.2-3.638C242.316,182.193,241.052,175.242,237.69,169.243Z"
        transform="translate(-8.572 -56.597)"
        fill="#3a344d"
      />
      <path
        id="Path_24785"
        data-name="Path 24785"
        d="M221.657,200.406a24.084,24.084,0,0,1-2.1-2.587,11.229,11.229,0,0,0-2.4-2.472,6.789,6.789,0,0,0-3.873-1.075,23.13,23.13,0,0,1-4.46-.309,9.281,9.281,0,0,1-3.352-1.543,11.779,11.779,0,0,1-3.881-4.818,16.636,16.636,0,0,1-.863-10.5.647.647,0,0,1-.231-.223.672.672,0,0,1,.234-.894s.091-.085.122-.117.031-.035.006,0l.038-.055c.074-.11.138-.224.208-.336l.026-.038a8.224,8.224,0,0,1-1.615-1.509,40.506,40.506,0,0,0-3.124,4.8c-3.362,6-4.626,12.95-4.694,19.792a23.739,23.739,0,0,0,.2,3.638h11c-.034-.442-.078-.884-.121-1.325a16.206,16.206,0,0,0,1.015,1.325H223.95c-.089-.055-.182-.1-.27-.16A13.148,13.148,0,0,1,221.657,200.406Z"
        transform="translate(-7.572 -66.073)"
        fill="#342f45"
      />
      <path
        id="Path_24786"
        data-name="Path 24786"
        d="M202.374,173.357a30.709,30.709,0,0,1,2.368-8.228,15.642,15.642,0,0,1,4.525-6.037.56.56,0,0,1,.159-.3c.472-.421.935-.852,1.4-1.28a5.1,5.1,0,0,1-.627-1.031c-6.277,1.918-10.6,7.036-13.808,12.759-3.362,6-4.626,12.95-4.694,19.792a23.739,23.739,0,0,0,.2,3.638h10.969a40.885,40.885,0,0,1-1.136-8.586A56.812,56.812,0,0,1,202.374,173.357Z"
        transform="translate(-9.572 -56.597)"
        fill="#f2bb9d"
      />
      <path
        id="Path_24787"
        data-name="Path 24787"
        d="M212.8,161.294a28.292,28.292,0,0,0-5.706,7.347c-4.1,7.612-5.131,16.422-4.341,24.961h5.986a40.884,40.884,0,0,1-1.136-8.586,56.812,56.812,0,0,1,.646-10.73,30.709,30.709,0,0,1,2.368-8.228,15.642,15.642,0,0,1,4.525-6.037.56.56,0,0,1,.159-.3c.472-.421.935-.852,1.4-1.28-.063-.08-.116-.167-.174-.25A47.824,47.824,0,0,0,212.8,161.294Z"
        transform="translate(-14.45 -57.526)"
        fill="#f2a57b"
      />
      <path
        id="Path_24788"
        data-name="Path 24788"
        d="M275.165,169.368c-2.932-5.232-7.447-10.323-13.052-12.653a5.3,5.3,0,0,1-1.452,2.047c2.082,1.1,3.515,1.918,4.485,3.625a38.385,38.385,0,0,1,3,7.569,56.38,56.38,0,0,1,1.922,10.934,71.189,71.189,0,0,1-.112,10.546c-.027.455-.065.909-.109,1.363h9.809a23.68,23.68,0,0,0,.2-3.638C279.791,182.319,278.527,175.368,275.165,169.368Z"
        transform="translate(-45.048 -56.722)"
        fill="#f2bb9d"
      />
      <path
        id="Path_24789"
        data-name="Path 24789"
        d="M276.218,201.558h4.368a49.769,49.769,0,0,0-.074-5.98,40.138,40.138,0,0,0-1.1-6.778,51.158,51.158,0,0,0-2-5.957,44.414,44.414,0,0,0-5.037-10.008,52.207,52.207,0,0,1,2.139,5.88,56.38,56.38,0,0,1,1.922,10.934,71.185,71.185,0,0,1-.112,10.546C276.3,200.651,276.261,201.1,276.218,201.558Z"
        transform="translate(-52.414 -65.482)"
        fill="#f2a57b"
      />
      <path
        id="Path_24790"
        data-name="Path 24790"
        d="M219.043,160.683c.445,1.814,3.494,1.293,4.718.774a.662.662,0,0,1,.96.738c-.418,1.53,1.528,2.258,2.832,2.411a4.88,4.88,0,0,0,2.48-.271,1.394,1.394,0,0,0,.974-1.323c0-.608.942-.942,1.217-.33.739,1.645,2.793,1.883,4.376,1.547a4.1,4.1,0,0,0,2.07-.972.838.838,0,0,0,.085-1.267.659.659,0,0,1,.738-.96,4.13,4.13,0,0,0,2.2.34,3.559,3.559,0,0,0,1.649-.905,5.4,5.4,0,0,0,.973-1.015,21.354,21.354,0,0,0-4.849-2.861c-1.308,3.29-5.344,4.185-8.525,3.731-2.412-.345-4.935-1.659-5.915-3.836a18.622,18.622,0,0,0-5.928,3.1A1.967,1.967,0,0,0,219.043,160.683Z"
        transform="translate(-23.405 -56.597)"
        fill="#fff"
      />
      <g
        id="Group_6675"
        data-name="Group 6675"
        transform="translate(200.047 69.731)"
      >
        <path
          id="Path_24791"
          data-name="Path 24791"
          d="M228.828,92.125c-.121-.086-.09-.4.207-.776a2.7,2.7,0,0,1,3.371-.547c.4.263.529.552.442.672s-.363.105-.72.082a5.131,5.131,0,0,0-2.591.42C229.206,92.11,228.959,92.222,228.828,92.125Z"
          transform="translate(-228.762 -90.44)"
          fill="#f25500"
        />
      </g>
      <g
        id="Group_6676"
        data-name="Group 6676"
        transform="translate(212.118 69.731)"
      >
        <path
          id="Path_24792"
          data-name="Path 24792"
          d="M259.243,92.124c-.131.1-.378-.015-.709-.149a5.139,5.139,0,0,0-2.592-.42c-.357.023-.626.051-.72-.082s.042-.409.442-.671a2.706,2.706,0,0,1,3.372.546C259.333,91.724,259.364,92.039,259.243,92.124Z"
          transform="translate(-255.196 -90.44)"
          fill="#f25500"
        />
      </g>
    </g>
  </svg>